HIERARCHY
ROOT Hips
{
	OFFSET -0.179506 -22.333345 2.821913
	CHANNELS 6 Xposition Yposition Zposition Zrotation Yrotation Xrotation 
	JOINT LeftUpLeg
	{
		OFFSET 6.951974 -9.140623 -0.681533
		CHANNELS 3 Zrotation Yrotation Xrotation
		JOINT LeftLeg
		{
			OFFSET 3.427654 -37.519855 -0.449580
			CHANNELS 3 Zrotation Yrotation Xrotation
			JOINT LeftFoot
			{
				OFFSET -1.359570 -39.796059 -4.369333
				CHANNELS 3 Zrotation Yrotation Xrotation
				JOINT LeftToe
				{
					OFFSET 2.635814 -5.579078 11.928840
					CHANNELS 3 Zrotation Yrotation Xrotation
					End Site
					{
						OFFSET 0.000000 0.000000 0.000000
					}
				}
			}
		}
	}
	JOINT RightUpLeg
	{
		OFFSET -6.767048 -9.052170 -0.431982
		CHANNELS 3 Zrotation Yrotation Xrotation
		JOINT RightLeg
		{
			OFFSET -3.829005 -38.256897 -0.885003
			CHANNELS 3 Zrotation Yrotation Xrotation
			JOINT RightFoot
			{
				OFFSET 1.577377 -39.841461 -4.231180
				CHANNELS 3 Zrotation Yrotation Xrotation
				JOINT RightToe
				{
					OFFSET -2.537174 -4.814398 12.334795
					CHANNELS 3 Zrotation Yrotation Xrotation
					End Site
					{
						OFFSET 0.000000 0.000000 0.000000
					}
				}
			}
		}
	}
	JOINT Spine
	{
		OFFSET -0.253288 10.896323 -2.669631
		CHANNELS 3 Zrotation Yrotation Xrotation
		JOINT Spine1
		{
			OFFSET 0.548704 13.518043 0.109247
			CHANNELS 3 Zrotation Yrotation Xrotation
			JOINT Spine2
			{
				OFFSET 0.145701 5.292222 2.542457
				CHANNELS 3 Zrotation Yrotation Xrotation
				JOINT Neck
				{
					OFFSET -0.277840 21.387037 -4.285703
					CHANNELS 3 Zrotation Yrotation Xrotation
					JOINT Head
					{
						OFFSET 0.515184 6.496960 5.134897
						CHANNELS 3 Zrotation Yrotation Xrotation
						End Site
						{
							OFFSET 0.000000 0.000000 0.000000
						}
					}
				}
				JOINT LeftShoulder
				{
					OFFSET 7.884473 12.174932 -3.408961
					CHANNELS 3 Zrotation Yrotation Xrotation
					JOINT LeftArm
					{
						OFFSET 9.097692 3.046888 -0.886815
						CHANNELS 3 Zrotation Yrotation Xrotation
						JOINT LeftForeArm
						{
							OFFSET 25.961220 -1.277207 -2.745643
							CHANNELS 3 Zrotation Yrotation Xrotation
							JOINT LeftHand
							{
								OFFSET 24.923361 0.898606 -0.117091
								CHANNELS 3 Zrotation Yrotation Xrotation
								End Site
								{
									OFFSET 0.000000 0.000000 0.000000
								}
							}
						}
					}
				}
				JOINT RightShoulder
				{
					OFFSET -8.175920 11.883285 -3.861528
					CHANNELS 3 Zrotation Yrotation Xrotation
					JOINT RightArm
					{
						OFFSET -9.601238 3.255117 -0.914307
						CHANNELS 3 Zrotation Yrotation Xrotation
						JOINT RightForeArm
						{
							OFFSET -25.374195 -1.332924 -2.140099
							CHANNELS 3 Zrotation Yrotation Xrotation
							JOINT RightHand
							{
								OFFSET -25.529810 0.777228 -0.555919
								CHANNELS 3 Zrotation Yrotation Xrotation
								End Site
								{
									OFFSET 0.000000 0.000000 0.000000
								}
							}
						}
					}
				}
			}
		}
	}
}
MOTION
Frames: 13
Frame Time: 0.033333
-21.567957 -44.373856 93.953072 123.180723 -2.373103 83.513611 -6.191148 -6.134496 -4.326189 -5.769528 -6.285553 23.358112 -0.400461 12.798563 -7.536055 nan nan nan 0.610004 4.009129 -14.543929 -2.989688 -1.136067 76.775273 5.278659 -4.437195 0.942858 nan nan nan -4.677671 2.010548 7.127221 -0.962365 0.671025 0.001571 -1.772861 2.448211 -0.711818 8.329289 2.055883 6.038510 13.592621 -4.625719 -3.024429 -14.214200 1.776219 -2.383828 -54.685966 -10.288519 5.407630 9.437784 -24.245782 -12.686935 0.417207 -10.171603 -22.074661 12.516862 -2.959719 0.566402 68.630065 -2.659603 10.021596 -7.983800 21.480691 -1.197861 7.885490 7.480251 -24.548692 
-20.498354 -43.681435 94.975540 123.510746 -1.408881 82.840466 -5.661303 -5.476598 -1.672939 -4.817985 -7.667630 21.256277 -1.549004 12.946482 -5.513979 nan nan nan 1.581667 4.851230 -15.462389 -4.346777 -1.975109 76.169598 5.286435 -4.952261 -0.023750 nan nan nan -4.159919 1.039533 7.898024 -0.483273 0.514653 -0.303357 -1.351966 2.297329 -0.476947 8.274701 2.193327 6.591004 13.299793 -4.774620 -2.166108 -13.617632 1.669298 -2.310394 -55.464108 -10.556329 5.768284 9.307556 -24.587703 -11.959689 0.536015 -10.208692 -23.018950 12.085052 -3.141862 0.240106 68.479789 -3.170674 9.704285 -7.538263 22.031923 -0.823635 7.122990 7.947789 -25.383748 
-19.444489 -42.974350 96.017136 124.011424 -0.367560 82.106680 -5.037523 -4.893665 0.884589 -3.842535 -8.845514 19.231225 -2.261010 13.376911 -3.010870 nan nan nan 2.513299 5.575197 -16.128087 -5.211079 -2.885082 75.217727 4.984111 -5.216918 -0.762772 nan nan nan -3.549353 0.035590 8.548936 0.041034 0.266979 -0.452212 -1.027880 2.054702 -0.202856 8.217882 2.365253 7.139748 13.017140 -4.820042 -1.160788 -12.940768 1.545807 -1.981678 -56.302622 -10.968947 6.002526 9.101867 -24.922242 -11.169210 0.391155 -10.409098 -24.578427 11.603813 -3.196831 0.209257 68.421515 -3.397799 9.584225 -7.317583 22.455228 -0.192435 6.996482 8.405667 -26.237554 
-18.397882 -42.267769 97.080360 124.529591 0.545262 81.500537 -4.520163 -4.313014 3.114655 -2.650208 -9.967281 17.446041 -3.262196 13.518471 -0.662081 nan nan nan 3.280637 6.205171 -16.874906 -5.578874 -3.479250 74.191049 4.771368 -5.050042 -1.163389 nan nan nan -3.051223 -0.938027 8.962787 0.539767 0.044198 -0.478878 -0.737284 1.633377 0.047220 8.288926 2.478503 7.897892 12.561711 -4.592171 -0.300882 -12.289652 1.738888 -1.688478 -57.191505 -11.546908 6.043570 8.796566 -25.033204 -10.784897 -0.146953 -10.882937 -25.299539 11.148087 -3.393873 0.392984 68.386659 -3.227358 9.704330 -7.152858 22.746062 0.345184 7.340753 8.647878 -26.675596 
-17.376881 -41.571438 98.130333 125.079113 1.385300 81.045900 -4.022430 -3.800952 4.966598 -1.562194 -10.764463 15.921385 -5.062317 13.820076 1.040947 nan nan nan 3.912269 6.888363 -17.710688 -5.850111 -4.022130 73.072158 4.818319 -4.677376 -1.569074 nan nan nan -2.629932 -1.893111 9.188470 1.042180 -0.212044 -0.270364 -0.427548 1.171826 0.161728 8.412362 2.761296 8.718549 12.005293 -4.415964 0.232864 -11.699160 2.019370 -1.524746 -58.019973 -12.038965 6.127138 8.537691 -25.148275 -10.260404 -1.781085 -11.433827 -25.734032 10.713065 -3.788443 0.641191 68.240155 -2.840590 9.836644 -6.763435 23.092521 1.166239 7.663260 8.708979 -27.144539 
-16.407719 -40.854229 99.147896 125.709502 2.144230 80.711909 -3.797586 -3.520805 6.571577 -0.476720 -11.667410 14.533715 -4.796308 14.234123 2.403566 nan nan nan 4.326847 7.465891 -18.629520 -5.754758 -4.497160 71.827791 4.744218 -4.535681 -2.103824 nan nan nan -2.209546 -2.782824 9.472466 1.485913 -0.479536 -0.100006 -0.106565 0.779788 0.024273 8.271382 2.758725 9.537671 11.608085 -4.031924 0.833033 -11.148889 2.085734 -1.065986 -58.700735 -12.544870 6.100875 8.052129 -25.489062 -9.325836 -3.561036 -11.743527 -26.539624 10.182937 -4.067371 1.018723 68.230315 -2.666465 9.722864 -6.598838 23.478814 1.694151 7.976036 8.951349 -27.376391 
-15.453162 -40.134743 100.097397 126.547077 2.917236 80.660922 -3.561090 -3.328182 7.627653 0.504599 -12.454906 13.549024 -4.445391 14.381996 4.704768 nan nan nan 4.678121 7.801566 -19.859280 -5.417500 -4.796057 70.642935 4.378705 -4.560794 -2.384061 nan nan nan -1.739494 -3.557403 9.524149 1.982368 -0.836896 0.002889 0.195975 0.372436 -0.149461 7.860154 2.434197 10.281631 11.392299 -3.607852 1.401658 -10.479919 1.969765 -0.415250 -59.526311 -13.105691 6.225482 7.385592 -25.811542 -8.319886 -3.475105 -11.632436 -27.342113 9.534599 -4.332793 1.284342 68.176723 -2.938186 9.579133 -6.252080 24.171016 2.241938 7.719453 9.258202 -27.646421 
-14.504037 -39.461197 100.985718 127.551427 3.699309 80.679271 -3.137073 -3.033987 8.182413 1.270132 -12.765351 13.302450 -4.656803 14.316781 6.893443 nan nan nan 4.957543 7.989843 -21.102926 -5.007207 -5.211677 69.468854 3.960060 -4.493955 -2.572494 nan nan nan -1.388452 -4.218345 9.616130 2.568128 -1.271242 0.070261 0.553813 -0.109023 -0.379621 7.510021 2.105160 10.939228 11.201613 -3.393792 1.862294 -9.714887 1.655277 0.259750 -60.442133 -13.546742 6.512432 7.105928 -26.010539 -7.127752 -3.651220 -11.504188 -28.221475 8.899578 -4.534640 1.438830 68.126647 -3.440302 9.450619 -5.991641 24.952989 2.933070 7.926055 9.297977 -28.338253 
-13.565186 -38.825680 101.807388 128.540808 4.436034 80.704598 -2.638064 -2.748541 8.485564 1.806312 -12.560601 13.449072 -4.883441 14.355059 8.266441 nan nan nan 5.153370 8.288743 -22.236041 -4.581296 -5.756794 68.202335 3.710717 -4.454256 -2.943613 nan nan nan -1.119141 -4.836311 9.782759 3.138359 -1.695593 0.167780 0.888860 -0.574033 -0.692673 7.374917 2.019083 11.542384 10.987053 -3.317544 2.219880 -8.892028 1.369630 0.852954 -61.189969 -13.959765 6.790737 6.915851 -26.109702 -5.466587 -5.592886 -11.609100 -28.748074 8.361646 -4.727382 1.791268 68.172970 -3.663637 9.252855 -5.885223 25.466426 3.563990 8.471764 9.225987 -29.175682 
-12.614506 -38.181103 102.526123 129.537536 5.019588 80.825153 -2.298905 -2.509065 8.594872 2.016144 -12.357643 13.709869 -4.663552 14.619730 9.074003 nan nan nan 5.185284 8.477937 -23.391892 -4.152607 -6.147481 66.917188 3.521926 -4.582288 -3.308005 nan nan nan -0.984031 -5.352504 9.668574 3.659449 -2.148928 0.420705 1.190932 -0.976491 -0.774806 7.136689 1.817371 11.866176 10.961745 -3.187922 2.444604 -8.238065 1.074573 1.232806 -61.709613 -14.923386 7.239479 5.501009 -26.096949 -5.327436 -3.675757 -11.214971 -29.731862 7.950922 -5.031824 1.996885 67.991305 -3.713543 9.392004 -5.279858 25.731090 3.538061 7.409296 9.205676 -29.712379 
-11.630232 -37.526432 103.141014 130.669396 5.568346 80.997115 -1.915900 -2.285187 8.631306 2.224613 -11.899234 13.978914 -4.939955 14.652345 9.352448 nan nan nan 5.105740 8.635874 -24.459386 -4.191924 -6.786130 65.612673 3.310081 -4.407360 -3.592234 nan nan nan -0.870275 -5.814732 9.543171 4.173731 -2.634050 0.686340 1.491745 -1.453842 -0.861143 7.081816 1.755028 12.106795 10.795528 -3.243072 2.529894 -7.584755 0.551800 1.624657 -62.339644 -15.669442 7.650285 5.027746 -25.803552 -4.562661 -3.734602 -11.540104 -29.678071 7.461299 -5.244456 2.192399 68.095941 -3.857447 9.345678 -5.071158 25.926187 3.547967 6.344427 9.539510 -30.399971 
-10.644654 -36.876701 103.651405 131.811336 6.055571 81.276937 -1.530830 -2.122981 8.641045 2.443306 -11.083441 13.962153 -5.336723 14.693118 9.225368 nan nan nan 4.916326 8.801402 -25.577934 -4.195641 -7.429907 64.319446 3.387530 -4.250816 -3.754610 nan nan nan -0.775280 -6.174987 9.286321 4.665681 -3.134223 1.009981 1.748259 -2.023988 -0.892100 7.114920 1.796780 12.254232 10.661749 -3.245091 2.406991 -7.000054 -0.120583 2.015936 -62.956289 -16.363976 8.106141 4.915623 -25.612415 -4.260848 -3.699498 -11.867356 -29.584277 7.052977 -5.378245 2.503160 68.312248 -3.911423 9.391764 -5.319941 26.233672 3.413447 6.182065 9.693802 -31.021174 
-9.688645 -36.226292 104.073112 132.914073 6.494708 81.641221 -1.142140 -1.900239 8.556345 2.519259 -9.915597 13.660832 -5.278481 14.525801 9.065904 nan nan nan 4.638146 8.959104 -26.721704 -3.889058 -7.956523 62.937663 3.537291 -4.280525 -3.657899 nan nan nan -0.679543 -6.499949 8.819271 5.153519 -3.648040 1.479487 1.968529 -2.629006 -0.778597 7.111398 1.897817 12.165791 10.575607 -3.265666 2.219850 -6.548712 -0.816101 2.416978 -63.471508 -17.176514 8.523330 4.935030 -25.467370 -4.242582 -3.709632 -12.012046 -29.552745 6.834191 -5.516088 2.919000 68.469552 -3.610616 9.450577 -5.885275 26.431526 3.102576 6.592562 9.710454 -31.308221 
